<svg width="41" height="39" viewBox="0 0 41 39" fill="none" xmlns="http://www.w3.org/2000/svg">
<path d="M2.25392 11.0015C1.45971 10.2116 1.0626 9.22431 1.0626 8.03954C1.0626 6.85476 1.45971 5.86745 2.25392 5.0776C3.05965 4.28775 4.06106 3.89283 5.25814 3.89283C6.45522 3.89283 7.45087 4.28775 8.24509 5.0776C9.05082 5.86745 9.45368 6.85476 9.45368 8.03954C9.45368 9.22431 9.05082 10.2116 8.24509 11.0015C7.45087 11.7913 6.45522 12.1862 5.25814 12.1862C4.06106 12.1862 3.05965 11.7913 2.25392 11.0015ZM3.42799 6.17775C2.94455 6.68551 2.70283 7.30611 2.70283 8.03954C2.70283 8.77297 2.94455 9.39356 3.42799 9.90132C3.91142 10.4091 4.52147 10.663 5.25814 10.663C5.99481 10.663 6.60486 10.4091 7.0883 9.90132C7.57173 9.39356 7.81345 8.77297 7.81345 8.03954C7.81345 7.30611 7.57173 6.68551 7.0883 6.17775C6.60486 5.66999 5.99481 5.41611 5.25814 5.41611C4.52147 5.41611 3.91142 5.66999 3.42799 6.17775Z" fill="#212121"/>
<path d="M13.2896 4.06208V4.82372C13.9457 4.20313 14.7572 3.89283 15.7241 3.89283C16.9442 3.89283 17.9283 4.3611 18.6765 5.29763C19.206 5.95208 19.4707 6.89425 19.4707 8.12416V12.017H17.8305V8.03954C17.8305 7.20455 17.6693 6.5896 17.347 6.19467C16.9327 5.67563 16.3744 5.41611 15.6723 5.41611C14.7514 5.41611 13.9745 5.79411 13.3414 6.55011V12.017H11.7012V4.06208H13.2896Z" fill="#212121"/>
<path d="M22.2393 12.017V0H23.8795V12.017H22.2393Z" fill="#212121"/>
<path d="M28.5351 16.0791H26.7913L28.9841 11.1876L25.5137 4.06208H27.2748L29.8128 9.30894L32.1437 4.06208H33.8702L28.5351 16.0791Z" fill="#212121"/>
<path d="M6.76025 13.2477L6.41494 14.7202C6.25379 14.6751 6.05236 14.6525 5.81064 14.6525C5.26965 14.6525 4.85528 14.8387 4.56752 15.211C4.36033 15.4819 4.25674 15.9558 4.25674 16.6328V17.3606H6.76025V18.7992H4.25674V25.3155H2.6165V18.7992H0.717285V17.3606H2.6165V16.6835C2.6165 15.6793 2.78916 14.9346 3.13447 14.4494C3.75603 13.5693 4.64233 13.1292 5.79337 13.1292C6.17322 13.1292 6.49551 13.1687 6.76025 13.2477Z" fill="#212121"/>
<path d="M13.2436 17.2421L13.0537 18.7823C12.881 18.7372 12.6681 18.7146 12.4149 18.7146C12.0005 18.7146 11.5861 18.8444 11.1717 19.1039C10.7689 19.3521 10.4523 19.668 10.2221 20.0517V25.3155H8.5819V17.3606H10.1703V18.2745C10.389 17.9699 10.7113 17.716 11.1372 17.5129C11.5631 17.2985 12.0523 17.1913 12.6048 17.1913C12.835 17.1913 13.0479 17.2082 13.2436 17.2421Z" fill="#212121"/>
<path d="M22.0359 21.6765H15.7857C15.8318 22.3535 16.1022 22.9234 16.5972 23.386C17.1037 23.8486 17.7079 24.0799 18.4101 24.0799C19.2964 24.0799 20.0733 23.7189 20.7409 22.9967L21.8114 23.9953C21.4776 24.4241 21.0172 24.7795 20.4302 25.0616C19.8431 25.3437 19.164 25.4847 18.3928 25.4847C17.2072 25.4847 16.2116 25.0898 15.4059 24.3C14.6001 23.5101 14.1973 22.5228 14.1973 21.338C14.1973 20.142 14.5656 19.1546 15.3023 18.3761C16.0504 17.5862 17.0001 17.1913 18.1511 17.1913C19.2791 17.1913 20.2115 17.5862 20.9481 18.3761C21.6848 19.1659 22.0531 20.1532 22.0531 21.338C22.0531 21.4621 22.0474 21.575 22.0359 21.6765ZM18.2029 18.5961C17.6734 18.5961 17.1957 18.7597 16.7698 19.0869C16.344 19.4029 16.062 19.8147 15.9238 20.3225H20.3438C20.2287 19.826 19.964 19.4142 19.5496 19.0869C19.1467 18.7597 18.6978 18.5961 18.2029 18.5961Z" fill="#212121"/>
<path d="M23.5194 24.3846L24.3654 23.1998C25.1366 23.7865 25.9365 24.0799 26.7653 24.0799C27.1451 24.0799 27.4732 23.9897 27.7494 23.8091C28.0372 23.6173 28.1811 23.3747 28.1811 23.0813C28.1811 22.9121 28.135 22.7654 28.0429 22.6413C27.9509 22.5059 27.807 22.3987 27.6113 22.3197C27.4271 22.2294 27.243 22.1617 27.0588 22.1166C26.8861 22.0602 26.6502 21.9981 26.3509 21.9304C26.0632 21.8514 25.8272 21.7837 25.643 21.7273C24.3999 21.3211 23.7783 20.6384 23.7783 19.6793C23.7783 18.8782 24.0776 18.2632 24.6761 17.8345C25.2747 17.4057 25.9768 17.1913 26.7826 17.1913C27.8415 17.1913 28.7393 17.4847 29.476 18.0714L28.63 19.2223C28.066 18.8049 27.4847 18.5961 26.8861 18.5961C26.4718 18.5961 26.1207 18.6864 25.8329 18.8669C25.5567 19.0475 25.4186 19.2901 25.4186 19.5947C25.4186 19.8429 25.5337 20.0291 25.7639 20.1532C26.0056 20.2774 26.3739 20.4015 26.8689 20.5256C27.2602 20.6272 27.5998 20.7343 27.8876 20.8472C28.1753 20.9487 28.4803 21.0954 28.8026 21.2872C29.1249 21.4791 29.3724 21.7273 29.5451 22.032C29.7292 22.3253 29.8213 22.6638 29.8213 23.0475C29.8213 23.7696 29.522 24.3564 28.9235 24.8077C28.3365 25.2591 27.6286 25.4847 26.7998 25.4847C25.5337 25.4847 24.4402 25.118 23.5194 24.3846Z" fill="#212121"/>
<path d="M33.7937 13.2985V18.0545C34.4844 17.479 35.2786 17.1913 36.1764 17.1913C37.3965 17.1913 38.3806 17.6596 39.1288 18.5961C39.6583 19.2506 39.923 20.1927 39.923 21.4226V25.3155H38.2828V21.338C38.2828 20.503 38.1217 19.8881 37.7994 19.4932C37.385 18.9741 36.8267 18.7146 36.1246 18.7146C35.2038 18.7146 34.4268 19.0926 33.7937 19.8486V25.3155H32.1535V13.2985H33.7937Z" fill="#212121"/>
<path d="M3.34166 30.659V31.4207C3.99775 30.8001 4.80923 30.4898 5.77611 30.4898C6.99621 30.4898 7.98035 30.9581 8.72853 31.8946C9.25801 32.549 9.52275 33.4912 9.52275 34.7211V38.614H7.88251V34.6365C7.88251 33.8015 7.72137 33.1866 7.39908 32.7916C6.9847 32.2726 6.42645 32.0131 5.72431 32.0131C4.80348 32.0131 4.02653 32.3911 3.39345 33.1471V38.614H1.75322V30.659H3.34166Z" fill="#212121"/>
<path d="M19.4393 34.975H13.1891C13.2352 35.652 13.5057 36.2218 14.0006 36.6845C14.5071 37.1471 15.1114 37.3784 15.8135 37.3784C16.6998 37.3784 17.4768 37.0173 18.1444 36.2952L19.2148 37.2938C18.881 37.7225 18.4206 38.078 17.8336 38.3601C17.2465 38.6422 16.5674 38.7832 15.7962 38.7832C14.6107 38.7832 13.615 38.3883 12.8093 37.5984C12.0036 36.8086 11.6007 35.8213 11.6007 34.6365C11.6007 33.4404 11.969 32.4531 12.7057 31.6746C13.4539 30.8847 14.4035 30.4898 15.5545 30.4898C16.6825 30.4898 17.6149 30.8847 18.3515 31.6746C19.0882 32.4644 19.4565 33.4517 19.4565 34.6365C19.4565 34.7606 19.4508 34.8735 19.4393 34.975ZM15.6063 31.8946C15.0768 31.8946 14.5991 32.0582 14.1733 32.3854C13.7474 32.7014 13.4654 33.1132 13.3272 33.621H17.7472C17.6321 33.1245 17.3674 32.7126 16.953 32.3854C16.5502 32.0582 16.1013 31.8946 15.6063 31.8946Z" fill="#212121"/>
<path d="M26.4671 30.659H27.6066L29.8338 36.0921L32.0611 30.659H33.7531L30.4554 38.614H29.3159L27.0368 33.0286L24.7578 38.614H23.6182L20.3205 30.659H22.0125L24.2398 36.0921L26.4671 30.659Z" fill="#212121"/>
<path d="M34.6982 37.6831L35.5442 36.4983C36.3154 37.085 37.1153 37.3784 37.9441 37.3784C38.3239 37.3784 38.652 37.2881 38.9282 37.1076C39.216 36.9158 39.3599 36.6732 39.3599 36.3798C39.3599 36.2106 39.3138 36.0639 39.2218 35.9398C39.1297 35.8043 38.9858 35.6972 38.7901 35.6182C38.6059 35.5279 38.4218 35.4602 38.2376 35.4151C38.065 35.3586 37.829 35.2966 37.5297 35.2289C37.242 35.1499 37.006 35.0822 36.8218 35.0258C35.5787 34.6196 34.9571 33.9369 34.9571 32.9778C34.9571 32.1767 35.2564 31.5617 35.855 31.133C36.4535 30.7042 37.1556 30.4898 37.9614 30.4898C39.0203 30.4898 39.9181 30.7832 40.6548 31.3699L39.8088 32.5208C39.2448 32.1033 38.6635 31.8946 38.065 31.8946C37.6506 31.8946 37.2995 31.9849 37.0118 32.1654C36.7355 32.3459 36.5974 32.5885 36.5974 32.8932C36.5974 33.1414 36.7125 33.3276 36.9427 33.4517C37.1844 33.5758 37.5527 33.7 38.0477 33.8241C38.439 33.9256 38.7786 34.0328 39.0664 34.1457C39.3541 34.2472 39.6591 34.3939 39.9814 34.5857C40.3037 34.7775 40.5512 35.0258 40.7239 35.3304C40.908 35.6238 41.0001 35.9623 41.0001 36.346C41.0001 37.0681 40.7008 37.6549 40.1023 38.1062C39.5153 38.5575 38.8074 38.7832 37.9786 38.7832C36.7125 38.7832 35.619 38.4165 34.6982 37.6831Z" fill="#212121"/>
</svg>
